<?xml version="1.0" encoding="UTF-8"?>
<!DOCTYPE svg PUBLIC "-//W3C//DTD SVG 1.1//EN" "http://www.w3.org/Graphics/SVG/1.1/DTD/svg11.dtd">
<!-- Creator: CorelDRAW -->
<svg xmlns="http://www.w3.org/2000/svg" xml:space="preserve" width="8.33333in" height="11in" version="1.1" style="shape-rendering:geometricPrecision; text-rendering:geometricPrecision; image-rendering:optimizeQuality; fill-rule:evenodd; clip-rule:evenodd"
viewBox="0 0 8333.33 11000"
 xmlns:xlink="http://www.w3.org/1999/xlink"
 xmlns:xodm="http://www.corel.com/coreldraw/odm/2003">
 <defs>
  <style type="text/css">
   <![CDATA[
    .fil0 {fill:black}
   ]]>
  </style>
 </defs>
 <g id="Layer_x0020_1">
  <metadata id="CorelCorpID_0Corel-Layer"/>
  <g id="_2596499260096">
   <path class="fil0" d="M4897.46 4819.1c0,-92.66 15.9,-146 73.1,-207.08 145.67,-155.58 350.81,-129.12 669.35,-129.12l168.1 0 0 672.39 -532.32 0c-220.2,0 -378.23,-116.68 -378.23,-336.19zm-532.32 -112.08c0,224.32 -8.69,400.86 157.99,598.47 70.95,84.11 213.5,200.37 332.3,228.03 -9.68,36.24 -37.61,77.85 -59.85,108.28 -84.31,115.35 -487.88,698.98 -500.5,746.25l616.39 0c168.6,-251.81 335.69,-504.65 504.29,-756.46 521.89,0 392.24,-26.69 392.24,140.09l0 616.37 532.32 0 0 -518.32c0,-41.42 122.27,-146.8 154.09,-168.11 36.19,26.51 79.07,112.25 114.89,165.29l269.31 431.11c22.19,35.66 39.1,48.93 50.07,90.02l574.35 0c-10.91,-46.84 -128.46,-220.98 -162.48,-271.79l-170.89 -263.37c-60.13,-89.57 -112.61,-176.06 -170.93,-263.32l-168.12 -266.17c119.24,-79.85 360.41,-367.41 493.8,-500.8 55.1,-55.08 123.55,-110.28 164.61,-171.59 -71.03,0 -76.32,-14.02 -154.1,-14.02 -401.44,0 -415.28,-42.83 -516.26,86.1l-478.35 516.26 0 -1218.73 -1148.69 0c-252.24,0 -466.88,91.88 -613.36,227.15l-29.76 26.26c-56.65,53.61 -183.37,215.41 -183.37,433z"/>
   <path class="fil0" d="M246.65 5197.31c0,458.38 74.67,639.73 374.52,942.27 50.18,50.65 100.13,80.69 160.38,119.81 327.02,212.39 864.54,212.2 1216.01,58.47 137.84,-60.31 187.06,-89.74 305.7,-170.6 43.3,-29.52 53.99,-42.69 100.69,-67.41l0 -1008.6 -952.57 0c-32.28,0 -42.02,9.74 -42.02,42.02l0 364.22c0,32.28 9.74,42.02 42.02,42.02l462.28 0 0 322.19c-40.11,10.7 -53.34,27.18 -93.02,47.07 -260.38,130.49 -632.72,103.52 -849.45,-113.22 -178.38,-178.38 -253.2,-504.47 -166.13,-762.27 39.78,-117.8 96.13,-201.39 178.25,-284.04 215.2,-216.63 552.11,-222.46 801.91,-103.92 112.06,53.18 141.02,94.49 226.49,151.74l264.31 -324.04c19.37,-24.49 26.52,-28.28 43.88,-54.19 -126.69,-189.18 -557.02,-322.21 -840.51,-322.21 -449.34,0 -790.56,169.87 -1016.84,482.07l-103.81 176.37c-51.44,115.67 -112.09,296.88 -112.09,462.23z"/>
   <path class="fil0" d="M2614.08 6738.25c-86.5,0 -84.05,-24.32 -84.05,-98.05 32.76,-17.34 36.46,-24.06 84.05,-28.03 -38.54,-165.39 -308.19,-127.68 -308.19,112.08 0,283.64 523.6,376.18 800.65,156.28l99.97 -82.15c28.62,-28.56 49.01,-59.27 74.11,-94 126.99,-175.76 138.59,-308.16 187.98,-344.35 15.27,183.52 184.53,398.02 326.36,514.14 227.44,186.22 637.12,161.68 758.73,-3.41 175.81,-238.69 -128.01,-505.35 -258.59,-258.59 67.64,32.46 76.85,-6.96 98.07,84.05l-37.76 32.3c-75.8,49.2 -135.74,-3.82 -163.85,-54.81 -57.63,-104.54 -159.35,-585.94 -255.86,-752.76 -20.25,-35.03 -59.37,-87.5 -87.91,-108.22 -89.58,-65.06 -188.35,-64.8 -289.81,-21.72 -38,16.15 -72.9,44.31 -103.38,64.72l-15.04 -12.99c-53.67,-42.06 -142.18,-85.07 -209.1,-85.07 -448.55,0 -349.11,980.59 -616.37,980.59z"/>
   <path class="fil0" d="M2488 5519.52c0,396.91 235,580.15 252.15,644.38l28.01 0c9.38,-112.69 107.96,-371.98 252.16,-448.27 -36.5,-156.64 -28.01,-55.81 -28.01,-252.15 0,-369.93 476.43,-568.09 760.58,-284.3 140.8,140.64 151.89,319.76 107.94,508.44 77.25,51.72 120.25,86.3 172.83,177.37 31.39,54.37 87.48,186.58 93.31,256.89 49.44,-13.19 31.2,-6.27 80.35,-73.74 185.84,-255.07 231.69,-643.34 88.19,-921.27 -262.41,-508.21 -922.12,-673.83 -1395.87,-358.39 -139.36,92.77 -259.96,218.53 -326.01,374.41 -48.81,115.22 -85.64,243.24 -85.64,376.64z"/>
   <path class="fil0" d="M7559.08 4693.02l0 1653c0,32.28 9.74,42.02 42.02,42.02l462.28 0 0 -1709.04c0,-32.28 -9.74,-42.03 -42.03,-42.03l-406.24 0c-32.8,0 -56.04,23.25 -56.04,56.04z"/>
   <path class="fil0" d="M7559.08 4202.72l0 112.08c0,246.03 515.29,327.7 527.41,-57.68 11.2,-356.21 -527.41,-322.89 -527.41,-54.4z"/>
  </g>
 </g>
</svg>
